<svg width="178" height="31" viewBox="0 0 178 31" fill="none" xmlns="http://www.w3.org/2000/svg">
<g clip-path="url(#clip0)">
<path d="M131.72 1.50305V9.25877C133.5 7.47877 136.17 6.58877 138.84 6.58877C141.891 6.58877 144.307 7.60591 146.214 9.38591C148.121 11.2931 149.011 13.9631 149.011 17.2688V29.9831H144.943V17.2688C144.943 15.2345 144.561 13.5816 143.544 12.4373C142.4 11.1659 140.747 10.5302 138.84 10.5302C136.806 10.5302 135.026 11.1659 133.754 12.4373C132.483 13.7088 131.72 15.4888 131.72 17.6502V30.1102H127.651V1.50305H131.72Z" fill="white"/>
<path d="M93.0685 29.8559C91.1614 29.8559 89.5085 29.0931 88.3643 27.9488C87.22 26.8045 86.5843 25.1516 86.5843 23.3716V1.50305H90.6528V7.22448H97.9V11.0388H90.6528V23.2445C90.6528 23.8802 90.78 24.5159 91.1614 25.0245C91.67 25.6602 92.3057 25.9145 93.0685 25.9145H97.9V29.7288H93.0685V29.8559Z" fill="white"/>
<path d="M42.72 7.09729V22.7359C42.72 23.8801 43.1014 24.8973 43.7371 25.6601C44.3728 26.2959 45.39 26.6773 46.4071 26.6773C47.4243 26.6773 48.4414 26.2959 49.0771 25.6601C49.7128 25.0244 50.0943 24.0073 50.0943 22.7359V7.09729H54.1628V22.7359C54.1628 25.0244 53.4 26.9316 52.0014 28.3302C50.6028 29.7287 48.6957 30.4916 46.4071 30.4916C44.2457 30.4916 42.2114 29.7287 40.6857 28.203C39.16 29.7287 37.2528 30.4916 34.9643 30.4916C32.8028 30.4916 30.7686 29.7287 29.37 28.3302C27.9714 26.9316 27.2086 25.0244 27.2086 22.7359V7.09729H31.2771V22.7359C31.2771 23.8801 31.6586 24.8973 32.2943 25.6601C32.93 26.2959 33.9471 26.6773 34.9643 26.6773C35.9814 26.6773 36.9986 26.2959 37.6343 25.6601C38.27 25.0244 38.6514 24.0073 38.6514 22.7359V7.09729H42.72Z" fill="white"/>
<path d="M0.63569 29.8558V26.0415H15.6385C16.4014 26.0415 17.1643 25.7872 17.6728 25.2787C18.1814 24.7701 18.5628 24.0072 18.5628 23.1172C18.5628 22.2272 18.1814 21.4644 17.6728 20.9558C17.1643 20.4472 16.4014 20.1929 15.6385 20.1929H6.73855C4.95855 20.1929 3.30569 19.5572 2.03426 18.4129C0.762833 17.2687 -0.127167 15.6158 -0.127167 13.7087C-0.127167 11.8015 0.63569 10.1487 1.90712 9.00436C3.17855 7.86008 4.8314 7.22437 6.6114 7.22437H21.6143V11.0387H6.86569C6.10283 11.0387 5.46712 11.2929 4.95855 11.8015C4.44998 12.3101 4.19569 12.9458 4.19569 13.7087C4.19569 14.4715 4.57712 15.1072 4.95855 15.6158C5.46712 16.1244 6.10283 16.2515 6.86569 16.2515H15.7657C17.8 16.2515 19.4528 16.8872 20.7243 18.1587C21.9957 19.4301 22.7585 21.0829 22.7585 23.1172C22.7585 25.1515 21.9957 26.8044 20.7243 28.0758C19.4528 29.2201 17.8 29.9829 15.7657 29.9829H0.63569V29.8558Z" fill="white"/>
<path d="M73.9971 29.8559C72.7257 30.3644 71.4543 30.4916 70.1828 30.4916C67.0043 30.4916 63.9528 29.2201 61.9185 27.1859C59.7571 25.0244 58.6128 22.1001 58.6128 18.7944C58.6128 15.6159 59.7571 12.5644 61.9185 10.403C64.08 8.24158 66.8771 7.09729 70.1828 7.09729H80.1V29.8559H76.0314V11.0387H70.1828C67.8943 11.0387 65.9871 11.9287 64.7157 13.3273C63.4443 14.7259 62.6814 16.7601 62.6814 18.9216C62.6814 21.083 63.3171 22.9901 64.7157 24.5159C66.1143 25.9144 68.0214 26.8044 70.1828 26.8044C71.5814 26.8044 72.8528 26.423 73.9971 25.9144V29.8559V29.8559Z" fill="white"/>
<path d="M104.893 18.4128C104.893 20.7014 105.656 22.7357 107.181 24.1342C108.58 25.6599 110.614 26.5499 112.903 26.5499C114.429 26.5499 115.827 26.1685 116.971 25.4057C118.243 24.6428 119.133 23.6257 119.769 22.2271L123.201 24.2614C122.184 26.1685 120.659 27.6942 118.879 28.8385C117.099 29.8557 114.937 30.3642 112.776 30.3642C109.47 30.3642 106.419 29.0928 104.257 26.9314C102.096 24.7699 100.824 21.7185 100.824 18.4128C100.824 15.1071 102.096 12.0557 104.257 9.89423C106.419 7.7328 109.47 6.33423 112.776 6.33423C114.937 6.33423 117.099 6.8428 118.879 7.85994C120.786 9.13137 122.184 10.6571 123.329 12.5642L119.769 14.4714C119.006 13.1999 118.116 12.0557 116.971 11.2928C115.827 10.5299 114.429 10.1485 112.903 10.1485C110.741 10.1485 108.58 11.0385 107.181 12.5642C105.656 14.2171 104.893 16.2514 104.893 18.4128Z" fill="white"/>
<path d="M146.341 3.53724C146.341 2.13867 147.486 0.994385 148.884 0.994385C150.283 0.994385 151.427 2.13867 151.427 3.53724C151.427 4.93581 150.283 6.0801 148.884 6.0801C147.486 6.0801 146.341 4.93581 146.341 3.53724ZM146.85 3.53724C146.85 4.68153 147.74 5.57153 148.884 5.57153C150.029 5.57153 150.919 4.68153 150.919 3.53724C150.919 2.39296 150.029 1.50296 148.884 1.50296C147.74 1.50296 146.85 2.39296 146.85 3.53724ZM148.757 3.66438H148.376V4.80867H147.867V2.13867H149.266C149.774 2.13867 150.029 2.39296 150.029 2.90153C150.029 3.4101 149.774 3.66438 149.266 3.66438L150.029 4.80867H149.52L148.757 3.66438ZM149.266 3.28296C149.52 3.28296 149.647 3.15581 149.647 2.90153C149.647 2.64724 149.52 2.5201 149.266 2.5201H148.376V3.28296H149.266Z" fill="white"/>
<path d="M178 7.09729H155.241V29.8559H178V7.09729Z" fill="#E2001A"/>
<path d="M169.354 15.7431V9.38599H163.887V15.7431H157.53V21.2103H163.887V27.5674H169.354V21.2103H175.711V15.7431H169.354Z" fill="white"/>
</g>
<defs>
<clipPath id="clip0">
<rect width="178" height="30.5143" fill="white" transform="translate(0 0.485718)"/>
</clipPath>
</defs>
</svg>
